<?xml version="1.0" standalone="no"?>
<!DOCTYPE svg PUBLIC "-//W3C//DTD SVG 20010904//EN"
 "http://www.w3.org/TR/2001/REC-SVG-20010904/DTD/svg10.dtd">
<svg version="1.0" xmlns="http://www.w3.org/2000/svg"
 width="96.000000pt" height="96.000000pt" viewBox="0 0 96.000000 96.000000"
 preserveAspectRatio="xMidYMid meet">

<g transform="translate(0.000000,96.000000) scale(0.100000,-0.100000)"
fill="#ffffff" stroke="none">
<path d="M124 725 c-4 -8 -4 -22 0 -30 5 -13 51 -15 358 -13 l353 3 0 25 0 25
-353 3 c-307 2 -353 0 -358 -13z"/>
<path d="M124 495 c-4 -8 -4 -22 0 -30 5 -13 51 -15 358 -13 l353 3 0 25 0 25
-353 3 c-307 2 -353 0 -358 -13z"/>
<path d="M124 265 c-4 -8 -4 -22 0 -30 5 -13 51 -15 358 -13 l353 3 0 25 0 25
-353 3 c-307 2 -353 0 -358 -13z"/>
</g>
</svg>
