<?xml version="1.0" standalone="no"?>
<!DOCTYPE svg PUBLIC "-//W3C//DTD SVG 20010904//EN"
 "http://www.w3.org/TR/2001/REC-SVG-20010904/DTD/svg10.dtd">
<svg version="1.0" xmlns="http://www.w3.org/2000/svg"
 width="2048.000000pt" height="2048.000000pt" viewBox="0 0 2048.000000 2048.000000"
 preserveAspectRatio="xMidYMid meet">

<g transform="translate(0.000000,2048.000000) scale(0.100000,-0.100000)"
fill="#6b7281" stroke="none">
<path d="M3840 10240 l0 -4830 6400 0 6400 0 0 4830 0 4830 -6400 0 -6400 0 0
-4830z m10929 3503 c-1497 -1512 -4124 -4153 -4147 -4170 -141 -104 -369 -137
-549 -79 -45 15 -106 43 -136 64 -44 29 -1993 1995 -4480 4520 l-92 92 4914 0
4914 0 -424 -427z m-8411 -1849 l1613 -1634 -18 -23 c-10 -13 -736 -756 -1613
-1652 l-1595 -1628 -2 1184 c-6 2812 -8 5389 -3 5388 3 -1 731 -736 1618
-1635z m9390 -3312 l-3 -1630 -1595 1633 c-877 898 -1595 1639 -1595 1646 0 8
718 736 1595 1619 l1595 1605 3 -1622 c1 -892 1 -2355 0 -3251z m-6336 249
c164 -110 353 -189 558 -232 153 -33 428 -33 587 -1 129 26 285 78 387 129
172 85 225 130 603 507 l363 360 36 -34 c63 -61 3169 -3241 3172 -3248 1 -4
-2193 -7 -4877 -7 l-4879 0 61 65 c33 35 762 781 1620 1657 l1559 1593 367
-369 c263 -264 388 -382 443 -420z"/>
</g>
</svg>
